<svg width="1200" height="600" viewBox="0 0 1200 600" fill="none" xmlns="http://www.w3.org/2000/svg">
<path d="M112.946 461V155.464H193.116L230.974 323.821C232.162 328.868 233.349 335.252 234.537 342.972C236.022 350.692 237.358 358.412 238.546 366.132C240.03 373.556 241.069 379.939 241.663 385.284C242.554 390.332 242.999 392.856 242.999 392.856H244.781C244.781 392.856 245.078 390.183 245.672 384.839C246.563 379.494 247.453 372.962 248.344 365.242C249.532 357.225 250.72 349.505 251.907 342.081C253.095 334.361 254.134 328.274 255.025 323.821L292.438 155.464H369.935V461H317.379V266.366C317.379 262.802 317.528 258.349 317.825 253.004C318.122 247.659 318.27 242.315 318.27 236.97C318.567 231.328 318.864 226.726 319.161 223.163C319.458 219.303 319.606 217.373 319.606 217.373H317.825C316.934 221.233 316.043 225.241 315.152 229.398C314.262 233.258 313.371 237.267 312.48 241.424C311.589 245.284 310.698 249.292 309.808 253.449C308.917 257.309 308.026 261.318 307.135 265.475L264.378 461H214.94L171.737 264.584C170.847 260.724 169.956 256.864 169.065 253.004C168.174 248.847 167.284 244.838 166.393 240.978C165.502 237.118 164.611 233.258 163.72 229.398C162.83 225.241 161.939 221.233 161.048 217.373H159.267C159.267 217.373 159.415 219.303 159.712 223.163C160.009 227.023 160.157 231.774 160.157 237.415C160.454 243.057 160.751 248.55 161.048 253.895C161.345 259.239 161.494 263.396 161.494 266.366V461H112.946ZM487.764 466.345C456.587 466.345 433.13 456.546 417.393 436.949C401.953 417.055 394.233 386.026 394.233 343.863C394.233 301.7 401.953 270.819 417.393 251.222C433.13 231.328 456.587 221.381 487.764 221.381C518.942 221.381 542.25 231.328 557.69 251.222C573.427 270.819 581.296 301.7 581.296 343.863C581.296 386.026 573.427 417.055 557.69 436.949C542.25 456.546 518.942 466.345 487.764 466.345ZM487.764 421.36C501.72 421.36 511.518 415.57 517.16 403.99C522.802 392.113 525.622 374.892 525.622 352.325V335.401C525.622 312.834 522.802 295.761 517.16 284.181C511.518 272.304 501.72 266.366 487.764 266.366C474.106 266.366 464.307 272.304 458.369 284.181C452.727 295.761 449.906 312.834 449.906 335.401V352.325C449.906 374.892 452.727 392.113 458.369 403.99C464.307 415.57 474.106 421.36 487.764 421.36ZM664.545 466.345C650.293 466.345 639.158 463.375 631.141 457.437C623.124 451.201 617.482 443.333 614.216 433.831C610.95 424.033 609.317 413.937 609.317 403.545V271.71H585.711V226.726H609.317L617.334 160.809H662.764V226.726H696.613V271.71H662.764V402.209C662.764 414.977 668.999 421.36 681.47 421.36H696.613V461C692.753 462.188 687.705 463.375 681.47 464.563C675.234 465.751 669.593 466.345 664.545 466.345ZM710.142 461V226.726H763.588V461H710.142ZM709.696 190.204V138.985H763.588V190.204H709.696ZM797.65 461V271.71H774.044V226.726H797.65V198.221C797.65 187.829 799.283 177.882 802.549 168.38C805.815 158.582 811.457 150.713 819.474 144.775C827.491 138.539 838.626 135.422 852.878 135.422C859.113 135.422 865.943 136.015 873.366 137.203C881.086 138.094 887.173 139.282 891.627 140.766V180.406H869.803C857.332 180.406 851.096 186.79 851.096 199.557V226.726H891.627V271.71H851.096V461H797.65ZM928.761 542.061C918.072 542.061 909.609 541.467 903.374 540.279C897.138 539.091 894.021 538.349 894.021 538.052V497.076H918.072C925.792 497.076 932.918 494.256 939.45 488.614C946.279 482.972 951.179 473.768 954.148 461L876.205 226.726H932.769L967.955 336.737C969.44 341.191 970.924 346.832 972.409 353.662C973.894 360.491 975.23 367.32 976.417 374.149C977.605 380.682 978.496 386.323 979.09 391.074C979.98 395.528 980.426 397.755 980.426 397.755H982.207C982.207 397.755 982.504 395.676 983.098 391.52C983.692 387.066 984.583 381.573 985.771 375.04C986.958 368.508 988.146 361.827 989.334 354.998C990.818 348.168 992.154 342.23 993.342 337.182L1022.29 226.726H1075.74L1011.6 448.975C1006.85 465.899 1000.77 481.339 993.342 495.295C986.216 509.547 977.457 520.83 967.064 529.144C956.672 537.755 943.904 542.061 928.761 542.061Z" fill="#373643"/>
<path d="M92.3331 528.417C92.3331 523.684 93.4002 519.439 95.5344 515.681C97.6685 511.877 100.568 508.908 104.233 506.773C107.945 504.639 112.051 503.572 116.551 503.572C121.84 503.572 126.456 504.848 130.4 507.4C134.343 509.951 137.22 513.57 139.029 518.256H131.444C130.098 515.333 128.15 513.083 125.598 511.506C123.093 509.928 120.077 509.14 116.551 509.14C113.164 509.14 110.125 509.928 107.435 511.506C104.744 513.083 102.633 515.333 101.102 518.256C99.5707 521.133 98.8052 524.519 98.8052 528.417C98.8052 532.267 99.5707 535.654 101.102 538.577C102.633 541.453 104.744 543.68 107.435 545.258C110.125 546.835 113.164 547.624 116.551 547.624C120.077 547.624 123.093 546.858 125.598 545.327C128.15 543.75 130.098 541.5 131.444 538.577H139.029C137.22 543.216 134.343 546.812 130.4 549.364C126.456 551.869 121.84 553.122 116.551 553.122C112.051 553.122 107.945 552.078 104.233 549.99C100.568 547.856 97.6685 544.91 95.5344 541.152C93.4002 537.394 92.3331 533.149 92.3331 528.417ZM165.089 553.33C161.516 553.33 158.269 552.518 155.346 550.895C152.469 549.271 150.196 546.974 148.526 544.005C146.902 540.989 146.09 537.51 146.09 533.566C146.09 529.669 146.925 526.236 148.595 523.267C150.312 520.251 152.632 517.955 155.555 516.377C158.477 514.753 161.748 513.941 165.367 513.941C168.986 513.941 172.257 514.753 175.18 516.377C178.102 517.955 180.399 520.228 182.069 523.197C183.786 526.166 184.644 529.623 184.644 533.566C184.644 537.51 183.763 540.989 182 544.005C180.283 546.974 177.94 549.271 174.971 550.895C172.001 552.518 168.707 553.33 165.089 553.33ZM165.089 547.763C167.362 547.763 169.496 547.23 171.491 546.162C173.486 545.095 175.087 543.495 176.293 541.361C177.546 539.226 178.172 536.628 178.172 533.566C178.172 530.504 177.569 527.906 176.363 525.772C175.156 523.638 173.579 522.06 171.63 521.04C169.682 519.973 167.571 519.439 165.297 519.439C162.978 519.439 160.844 519.973 158.895 521.04C156.993 522.06 155.462 523.638 154.302 525.772C153.142 527.906 152.562 530.504 152.562 533.566C152.562 536.675 153.119 539.296 154.232 541.43C155.392 543.564 156.923 545.165 158.825 546.232C160.728 547.253 162.815 547.763 165.089 547.763ZM190.604 533.497C190.604 529.6 191.393 526.19 192.971 523.267C194.548 520.297 196.705 518.001 199.443 516.377C202.226 514.753 205.335 513.941 208.768 513.941C211.737 513.941 214.498 514.637 217.049 516.029C219.601 517.375 221.55 519.161 222.895 521.388V501.206H229.298V552.704H222.895V545.536C221.642 547.809 219.787 549.688 217.328 551.173C214.869 552.611 211.992 553.33 208.698 553.33C205.312 553.33 202.226 552.495 199.443 550.825C196.705 549.155 194.548 546.812 192.971 543.796C191.393 540.781 190.604 537.347 190.604 533.497ZM222.895 533.566C222.895 530.69 222.315 528.185 221.155 526.05C219.995 523.916 218.418 522.292 216.423 521.179C214.474 520.019 212.317 519.439 209.951 519.439C207.585 519.439 205.428 519.996 203.479 521.109C201.53 522.223 199.976 523.847 198.816 525.981C197.656 528.115 197.076 530.62 197.076 533.497C197.076 536.42 197.656 538.971 198.816 541.152C199.976 543.286 201.53 544.933 203.479 546.093C205.428 547.206 207.585 547.763 209.951 547.763C212.317 547.763 214.474 547.206 216.423 546.093C218.418 544.933 219.995 543.286 221.155 541.152C222.315 538.971 222.895 536.443 222.895 533.566ZM274.795 532.174C274.795 533.381 274.726 534.657 274.587 536.002H244.105C244.337 539.76 245.613 542.706 247.933 544.84C250.299 546.928 253.152 547.972 256.493 547.972C259.23 547.972 261.503 547.345 263.313 546.093C265.168 544.794 266.468 543.077 267.21 540.943H274.03C273.009 544.608 270.968 547.601 267.906 549.92C264.844 552.194 261.039 553.33 256.493 553.33C252.874 553.33 249.626 552.518 246.75 550.895C243.92 549.271 241.693 546.974 240.069 544.005C238.445 540.989 237.633 537.51 237.633 533.566C237.633 529.623 238.422 526.166 239.999 523.197C241.577 520.228 243.781 517.955 246.611 516.377C249.487 514.753 252.781 513.941 256.493 513.941C260.111 513.941 263.313 514.73 266.096 516.308C268.88 517.885 271.014 520.065 272.499 522.849C274.03 525.586 274.795 528.695 274.795 532.174ZM268.254 530.852C268.254 528.44 267.72 526.375 266.653 524.659C265.586 522.896 264.125 521.573 262.269 520.692C260.459 519.764 258.441 519.3 256.214 519.3C253.013 519.3 250.276 520.321 248.002 522.362C245.776 524.403 244.5 527.233 244.175 530.852H268.254ZM285.173 553.122C283.966 553.122 282.946 552.704 282.111 551.869C281.276 551.034 280.858 550.013 280.858 548.807C280.858 547.601 281.276 546.58 282.111 545.745C282.946 544.91 283.966 544.492 285.173 544.492C286.333 544.492 287.307 544.91 288.096 545.745C288.931 546.58 289.348 547.601 289.348 548.807C289.348 550.013 288.931 551.034 288.096 551.869C287.307 552.704 286.333 553.122 285.173 553.122ZM295.4 528.417C295.4 523.684 296.467 519.439 298.601 515.681C300.735 511.877 303.635 508.908 307.3 506.773C311.012 504.639 315.118 503.572 319.618 503.572C324.907 503.572 329.523 504.848 333.467 507.4C337.41 509.951 340.287 513.57 342.096 518.256H334.511C333.165 515.333 331.217 513.083 328.665 511.506C326.16 509.928 323.144 509.14 319.618 509.14C316.231 509.14 313.192 509.928 310.501 511.506C307.811 513.083 305.7 515.333 304.169 518.256C302.638 521.133 301.872 524.519 301.872 528.417C301.872 532.267 302.638 535.654 304.169 538.577C305.7 541.453 307.811 543.68 310.501 545.258C313.192 546.835 316.231 547.624 319.618 547.624C323.144 547.624 326.16 546.858 328.665 545.327C331.217 543.75 333.165 541.5 334.511 538.577H342.096C340.287 543.216 337.41 546.812 333.467 549.364C329.523 551.869 324.907 553.122 319.618 553.122C315.118 553.122 311.012 552.078 307.3 549.99C303.635 547.856 300.735 544.91 298.601 541.152C296.467 537.394 295.4 533.149 295.4 528.417ZM357.856 520.761C358.969 518.581 360.547 516.887 362.588 515.681C364.676 514.475 367.204 513.872 370.174 513.872V520.413H368.503C361.405 520.413 357.856 524.264 357.856 531.966V552.704H351.523V514.568H357.856V520.761ZM412.28 532.174C412.28 533.381 412.21 534.657 412.071 536.002H381.59C381.822 539.76 383.098 542.706 385.418 544.84C387.784 546.928 390.637 547.972 393.977 547.972C396.715 547.972 398.988 547.345 400.797 546.093C402.653 544.794 403.952 543.077 404.695 540.943H411.515C410.494 544.608 408.452 547.601 405.39 549.92C402.328 552.194 398.524 553.33 393.977 553.33C390.359 553.33 387.111 552.518 384.235 550.895C381.404 549.271 379.177 546.974 377.554 544.005C375.93 540.989 375.118 537.51 375.118 533.566C375.118 529.623 375.907 526.166 377.484 523.197C379.062 520.228 381.265 517.955 384.095 516.377C386.972 514.753 390.266 513.941 393.977 513.941C397.596 513.941 400.797 514.73 403.581 516.308C406.365 517.885 408.499 520.065 409.983 522.849C411.515 525.586 412.28 528.695 412.28 532.174ZM405.738 530.852C405.738 528.44 405.205 526.375 404.138 524.659C403.071 522.896 401.609 521.573 399.753 520.692C397.944 519.764 395.926 519.3 393.699 519.3C390.498 519.3 387.76 520.321 385.487 522.362C383.26 524.403 381.984 527.233 381.66 530.852H405.738ZM418.273 533.497C418.273 529.6 419.062 526.19 420.639 523.267C422.217 520.297 424.374 518.001 427.111 516.377C429.895 514.753 432.98 513.941 436.367 513.941C439.707 513.941 442.607 514.661 445.066 516.099C447.525 517.537 449.357 519.346 450.564 521.527V514.568H456.966V552.704H450.564V545.606C449.311 547.833 447.432 549.688 444.927 551.173C442.468 552.611 439.591 553.33 436.297 553.33C432.911 553.33 429.849 552.495 427.111 550.825C424.374 549.155 422.217 546.812 420.639 543.796C419.062 540.781 418.273 537.347 418.273 533.497ZM450.564 533.566C450.564 530.69 449.984 528.185 448.824 526.05C447.664 523.916 446.087 522.292 444.092 521.179C442.143 520.019 439.986 519.439 437.62 519.439C435.253 519.439 433.096 519.996 431.148 521.109C429.199 522.223 427.645 523.847 426.485 525.981C425.325 528.115 424.745 530.62 424.745 533.497C424.745 536.42 425.325 538.971 426.485 541.152C427.645 543.286 429.199 544.933 431.148 546.093C433.096 547.206 435.253 547.763 437.62 547.763C439.986 547.763 442.143 547.206 444.092 546.093C446.087 544.933 447.664 543.286 448.824 541.152C449.984 538.971 450.564 536.443 450.564 533.566ZM475.393 519.787V542.265C475.393 544.121 475.787 545.443 476.576 546.232C477.365 546.974 478.733 547.345 480.682 547.345H485.344V552.704H479.638C476.112 552.704 473.467 551.892 471.704 550.268C469.941 548.645 469.06 545.977 469.06 542.265V519.787H464.119V514.568H469.06V504.964H475.393V514.568H485.344V519.787H475.393ZM527.813 532.174C527.813 533.381 527.744 534.657 527.605 536.002H497.123C497.355 539.76 498.631 542.706 500.951 544.84C503.317 546.928 506.17 547.972 509.511 547.972C512.248 547.972 514.521 547.345 516.331 546.093C518.186 544.794 519.486 543.077 520.228 540.943H527.048C526.027 544.608 523.986 547.601 520.924 549.92C517.862 552.194 514.057 553.33 509.511 553.33C505.892 553.33 502.644 552.518 499.768 550.895C496.938 549.271 494.711 546.974 493.087 544.005C491.463 540.989 490.651 537.51 490.651 533.566C490.651 529.623 491.44 526.166 493.017 523.197C494.595 520.228 496.799 517.955 499.629 516.377C502.505 514.753 505.799 513.941 509.511 513.941C513.129 513.941 516.331 514.73 519.114 516.308C521.898 517.885 524.032 520.065 525.517 522.849C527.048 525.586 527.813 528.695 527.813 532.174ZM521.272 530.852C521.272 528.44 520.738 526.375 519.671 524.659C518.604 522.896 517.143 521.573 515.287 520.692C513.477 519.764 511.459 519.3 509.232 519.3C506.031 519.3 503.294 520.321 501.02 522.362C498.794 524.403 497.518 527.233 497.193 530.852H521.272ZM538.191 553.122C536.984 553.122 535.964 552.704 535.129 551.869C534.294 551.034 533.876 550.013 533.876 548.807C533.876 547.601 534.294 546.58 535.129 545.745C535.964 544.91 536.984 544.492 538.191 544.492C539.351 544.492 540.325 544.91 541.114 545.745C541.949 546.58 542.366 547.601 542.366 548.807C542.366 550.013 541.949 551.034 541.114 551.869C540.325 552.704 539.351 553.122 538.191 553.122ZM548.418 528.417C548.418 523.684 549.485 519.439 551.619 515.681C553.753 511.877 556.653 508.908 560.318 506.773C564.03 504.639 568.136 503.572 572.636 503.572C577.925 503.572 582.541 504.848 586.485 507.4C590.428 509.951 593.305 513.57 595.114 518.256H587.529C586.183 515.333 584.235 513.083 581.683 511.506C579.178 509.928 576.162 509.14 572.636 509.14C569.249 509.14 566.21 509.928 563.519 511.506C560.829 513.083 558.718 515.333 557.187 518.256C555.656 521.133 554.89 524.519 554.89 528.417C554.89 532.267 555.656 535.654 557.187 538.577C558.718 541.453 560.829 543.68 563.519 545.258C566.21 546.835 569.249 547.624 572.636 547.624C576.162 547.624 579.178 546.858 581.683 545.327C584.235 543.75 586.183 541.5 587.529 538.577H595.114C593.305 543.216 590.428 546.812 586.485 549.364C582.541 551.869 577.925 553.122 572.636 553.122C568.136 553.122 564.03 552.078 560.318 549.99C556.653 547.856 553.753 544.91 551.619 541.152C549.485 537.394 548.418 533.149 548.418 528.417ZM621.174 553.33C617.601 553.33 614.354 552.518 611.431 550.895C608.554 549.271 606.281 546.974 604.611 544.005C602.987 540.989 602.175 537.51 602.175 533.566C602.175 529.669 603.01 526.236 604.68 523.267C606.397 520.251 608.717 517.955 611.639 516.377C614.562 514.753 617.833 513.941 621.452 513.941C625.071 513.941 628.341 514.753 631.264 516.377C634.187 517.955 636.484 520.228 638.154 523.197C639.871 526.166 640.729 529.623 640.729 533.566C640.729 537.51 639.847 540.989 638.084 544.005C636.368 546.974 634.025 549.271 631.056 550.895C628.086 552.518 624.792 553.33 621.174 553.33ZM621.174 547.763C623.447 547.763 625.581 547.23 627.576 546.162C629.571 545.095 631.172 543.495 632.378 541.361C633.63 539.226 634.257 536.628 634.257 533.566C634.257 530.504 633.654 527.906 632.447 525.772C631.241 523.638 629.664 522.06 627.715 521.04C625.767 519.973 623.656 519.439 621.382 519.439C619.063 519.439 616.928 519.973 614.98 521.04C613.078 522.06 611.547 523.638 610.387 525.772C609.227 527.906 608.647 530.504 608.647 533.566C608.647 536.675 609.204 539.296 610.317 541.43C611.477 543.564 613.008 545.165 614.91 546.232C616.812 547.253 618.9 547.763 621.174 547.763ZM667.636 513.872C672.276 513.872 676.034 515.287 678.91 518.117C681.787 520.901 683.225 524.937 683.225 530.226V552.704H676.962V531.131C676.962 527.326 676.011 524.427 674.108 522.432C672.206 520.39 669.608 519.37 666.314 519.37C662.974 519.37 660.306 520.413 658.311 522.501C656.363 524.589 655.388 527.628 655.388 531.618V552.704H649.055V514.568H655.388V519.996C656.641 518.047 658.334 516.54 660.468 515.472C662.649 514.405 665.038 513.872 667.636 513.872ZM712.151 513.872C716.79 513.872 720.548 515.287 723.425 518.117C726.301 520.901 727.739 524.937 727.739 530.226V552.704H721.476V531.131C721.476 527.326 720.525 524.427 718.623 522.432C716.721 520.39 714.122 519.37 710.828 519.37C707.488 519.37 704.82 520.413 702.825 522.501C700.877 524.589 699.903 527.628 699.903 531.618V552.704H693.57V514.568H699.903V519.996C701.155 518.047 702.849 516.54 704.983 515.472C707.163 514.405 709.553 513.872 712.151 513.872ZM772.88 532.174C772.88 533.381 772.81 534.657 772.671 536.002H742.19C742.422 539.76 743.698 542.706 746.018 544.84C748.384 546.928 751.237 547.972 754.577 547.972C757.315 547.972 759.588 547.345 761.397 546.093C763.253 544.794 764.552 543.077 765.294 540.943H772.114C771.094 544.608 769.052 547.601 765.99 549.92C762.928 552.194 759.124 553.33 754.577 553.33C750.959 553.33 747.711 552.518 744.834 550.895C742.004 549.271 739.777 546.974 738.154 544.005C736.53 540.989 735.718 537.51 735.718 533.566C735.718 529.623 736.507 526.166 738.084 523.197C739.661 520.228 741.865 517.955 744.695 516.377C747.572 514.753 750.866 513.941 754.577 513.941C758.196 513.941 761.397 514.73 764.181 516.308C766.965 517.885 769.099 520.065 770.583 522.849C772.114 525.586 772.88 528.695 772.88 532.174ZM766.338 530.852C766.338 528.44 765.805 526.375 764.738 524.659C763.671 522.896 762.209 521.573 760.353 520.692C758.544 519.764 756.526 519.3 754.299 519.3C751.098 519.3 748.36 520.321 746.087 522.362C743.86 524.403 742.584 527.233 742.26 530.852H766.338ZM778.873 533.566C778.873 529.623 779.662 526.19 781.239 523.267C782.817 520.297 784.997 518.001 787.781 516.377C790.611 514.753 793.835 513.941 797.454 513.941C802.14 513.941 805.991 515.078 809.006 517.351C812.068 519.625 814.086 522.78 815.061 526.816H808.241C807.591 524.496 806.315 522.664 804.413 521.318C802.557 519.973 800.238 519.3 797.454 519.3C793.835 519.3 790.912 520.553 788.685 523.058C786.459 525.517 785.345 529.02 785.345 533.566C785.345 538.159 786.459 541.709 788.685 544.214C790.912 546.719 793.835 547.972 797.454 547.972C800.238 547.972 802.557 547.322 804.413 546.023C806.269 544.724 807.545 542.868 808.241 540.456H815.061C814.04 544.353 811.999 547.485 808.937 549.851C805.875 552.171 802.047 553.33 797.454 553.33C793.835 553.33 790.611 552.518 787.781 550.895C784.997 549.271 782.817 546.974 781.239 544.005C779.662 541.036 778.873 537.556 778.873 533.566ZM831.235 519.787V542.265C831.235 544.121 831.63 545.443 832.418 546.232C833.207 546.974 834.576 547.345 836.524 547.345H841.187V552.704H835.481C831.955 552.704 829.31 551.892 827.547 550.268C825.784 548.645 824.903 545.977 824.903 542.265V519.787H819.962V514.568H824.903V504.964H831.235V514.568H841.187V519.787H831.235Z" fill="#373643"/>
<circle cx="1077.54" cy="494.102" r="34.7959" fill="#6D28D9"/>
</svg>
